<?xml version="1.0" encoding="UTF-8"?>
<!DOCTYPE svg PUBLIC "-//W3C//DTD SVG 1.1//EN" "http://www.w3.org/Graphics/SVG/1.1/DTD/svg11.dtd">
<!-- Creator: CorelDRAW 2020 (64-Bit) -->
<svg xmlns="http://www.w3.org/2000/svg" xml:space="preserve" width="100%" height="100%" version="1.1" style="shape-rendering:geometricPrecision; text-rendering:geometricPrecision; image-rendering:optimizeQuality; fill-rule:evenodd; clip-rule:evenodd"
viewBox="0 0 13000 6000"
 xmlns:xlink="http://www.w3.org/1999/xlink"
 xmlns:xodm="http://www.corel.com/coreldraw/odm/2003">
 <defs>
  <style type="text/css">
   <![CDATA[
    .fil1 {fill:#2B2A29}
    .fil0 {fill:#2B2A29;fill-rule:nonzero}
   ]]>
  </style>
 </defs>
 <g id="Слой_x0020_1">
  <metadata id="CorelCorpID_0Corel-Layer"/>
  <g id="_2149721298944">
   <path class="fil0" d="M9512.02 3864.17l505.34 0c278.04,0 495.56,-147.25 495.56,-351.68 0,-166.8 -161.92,-338.52 -394.14,-353.25l0 -6.51c165.18,-21.27 258.42,-135.75 258.42,-228.97 0,-148.83 -171.75,-246.94 -426.88,-246.94l-438.3 0 0 14.7 62.17 0c86.67,0 96.47,8.18 96.47,86.69l0 971.42c0,78.51 -9.8,86.67 -96.47,86.67l-62.17 0 0 27.87zm268.22 -40.95l0 -3.26c21.27,-19.63 29.45,-45.8 29.45,-83.41l0 -943.61c0,-37.64 -8.18,-65.42 -29.45,-85.05l0 -1.64 145.55 0c179.88,0 297.64,88.31 297.64,220.77 0,129.21 -114.48,220.81 -273.11,220.81l-71.95 0 0 27.78 94.83 0c224.09,0 384.34,140.65 384.34,336.88 0,186.44 -148.83,310.73 -372.87,310.73l-204.43 0z"/>
   <path class="fil0" d="M8804.91 3836.3c-336.88,0 -516.78,-210.95 -516.78,-601.81 0,-351.62 176.62,-541.33 503.69,-541.33 333.64,0 513.55,210.98 513.55,601.83 0,351.6 -175.01,541.31 -500.46,541.31zm-6.52 29.43c397.4,0 663.97,-240.38 663.97,-601.81 0,-359.78 -266.57,-600.19 -663.97,-600.19 -400.71,0 -667.26,240.41 -667.26,600.19 0,361.43 266.55,601.81 667.26,601.81z"/>
   <path class="fil0" d="M7043.56 3865.52l505.34 0c278.05,0 495.56,-148.6 495.56,-353.03 0,-166.8 -161.89,-338.52 -394.14,-353.25l0 -6.51c165.18,-21.27 258.39,-188.22 258.39,-281.41 0,-148.86 -171.95,-308.28 -426.85,-308.28l-426.59 0 0 15.67 54.29 0.07c76.09,0.06 92.64,8.79 92.64,87.04l0 1083.81c0,78.36 -9.93,86.67 -96.47,86.67l-62.17 0 0 29.22zm268.22 -42.3l0 -3.26c21.27,-19.63 29.43,-45.8 29.43,-83.41l0 -1056c0,-37.64 -8.16,-66.79 -29.43,-86.44l0 -1.64 145.55 0c179.91,0 297.65,149.62 297.65,282.08 0,129.24 -114.54,273.28 -273.12,273.28l-71.94 0 0 27.78 94.83 0c224.08,0 384.34,140.65 384.34,336.88 0,186.44 -148.84,310.73 -372.87,310.73l-204.44 0z"/>
   <path class="fil0" d="M5898.57 3865.29l359.74 0 0 -27.71 -69.39 0c-65.76,0 -93.13,-10.51 -93.13,-38.61 0,-21.06 14.62,-52.62 42.01,-98.24l251.98 -433.37 235.58 440.38c23.72,36.84 38.35,64.93 38.35,85.94 0,29.85 -31.07,43.9 -105.93,43.9l-42 0 0 29.48 465.64 0 0 -29.48 -34.69 0c-63.91,0 -80.36,-33.34 -146.07,-136.85l-290.35 -542.14 199.95 -321.42c69.41,-112.29 96.81,-136.84 157.05,-136.84l23.74 0 0 -15.8 -336.01 0 0 15.8 71.21 0c63.94,0 89.48,10.53 89.48,36.83 0,21.06 -14.59,52.65 -43.81,96.52l-181.71 289.8 -166.66 -323.68c-23.75,-43.85 -73.04,-87.72 -102.26,-96.47l0 -3.52 109.58 0 0 -15.8 -345.13 0 0 15.8 23.72 0c54.79,0 94.98,24.55 155.24,136.87l206.81 397.35 -273.9 468.45c-67.56,112.29 -98.61,138.62 -180.77,138.62l-18.27 0 0 24.19z"/>
   <path class="fil0" d="M2512.91 3865.16l554.42 0c305.05,0 543.68,-161.4 543.68,-385.7 0,-183.01 -177.61,-371.41 -432.4,-387.57l0 -7.14c181.21,-23.33 283.46,-148.94 283.46,-251.22 0,-163.28 -188.37,-270.93 -468.29,-270.93l-480.87 0 0 16.13 68.19 0c95.09,0 105.86,9 105.86,95.12l0 1065.77c0,86.12 -10.77,95.09 -105.86,95.09l-68.19 0 0 30.45zm294.29 -44.79l0 -3.59c23.3,-21.53 32.29,-50.23 32.29,-91.49l0 -1035.28c0,-41.29 -8.99,-71.79 -32.29,-93.32l0 -1.8 159.68 0c197.34,0 326.55,96.89 326.55,242.23 0,141.75 -125.59,242.23 -299.65,242.23l-78.93 0 0 30.5 104.05 0c245.83,0 421.64,154.31 421.64,369.61 0,204.54 -163.27,340.91 -409.07,340.91l-224.27 0z"/>
   <path class="fil0" d="M8570.76 3320.85l487.27 0 0 -25.31 -66.13 0c-91.93,0 -104.42,-6.96 -104.42,-90.5l0 -1883.51c0,-83.54 12.2,-90.48 104.42,-90.48l66.13 0 0 -19.15 -487.27 0 0 15.66 66.13 0c92.24,0 100.92,7.25 100.92,90.5l0 1886.98c0,83.23 -8.96,90.5 -100.92,90.5l-66.13 0 0 25.31z"/>
   <path class="fil0" d="M7615.47 2463.16l462.96 0c292.35,0 487.27,-128.77 487.27,-321.94 0,-193.17 -194.92,-321.97 -487.27,-321.97l-146.2 0 0 -497.72c0,-83.54 12.17,-93.97 104.41,-93.97l66.13 0 0 -15.66 -487.3 0 0 15.66 66.16 0c92.22,0 102.67,6.96 102.67,90.5l0 1035.46c0,83.55 -10.45,92.23 -102.67,92.23l-66.16 0 0 17.41zm316.76 -614.29l109.65 0c233.19,0 358.49,102.64 358.49,292.35 0,189.68 -125.3,290.63 -358.49,290.63l-140.96 0 0 -3.49c22.6,-20.88 31.31,-48.72 31.31,-88.75l0 -490.74z"/>
   <path class="fil0" d="M6587.13 2578.71l468.16 0 0 -15.67 -46.99 0c-92.22,0 -104.42,-8.68 -104.42,-92.22l0 -494.94 165.31 0c288.91,0 480.34,-153.13 480.34,-381.13 0,-229.72 -191.43,-382.85 -480.34,-382.85l-482.06 0 0 15.66 66.15 0c92.22,0 102.67,8.73 102.67,92.25l0 1151.01c0,83.52 -10.47,92.22 -102.67,92.22l-66.15 0 0 15.67zm285.42 -1333.74l139.21 0c241.92,0 370.69,121.81 370.69,349.78 0,228 -128.77,349.8 -370.69,349.8l-107.88 0 0 -582.98c0,-40.04 -8.71,-80.05 -31.33,-107.92l0 -8.68z"/>
   <path class="fil0" d="M3958.05 2411.13c133.51,-121.44 293.66,-277.63 294.52,-677.71l1.25 -587 406.03 0c-56.07,22.52 -82.34,101.89 -82.63,142.63l-8.73 1122.08 -610.44 0zm-385.98 0l43.74 344.41 41.26 0 -10.92 -196.3c-4.93,-88.73 11.1,-114.8 109.24,-114.8l978.3 0c98.14,0 119.28,21.79 119.1,120.22 -0.13,64.38 -9.7,127.25 -29.87,190.88l50.35 0c44.32,-106.69 60.24,-216.11 43.74,-344.41l-171.82 0 -9.65 -1147.23c-0.73,-88.89 11.11,-134.14 109.25,-134.14l72.22 0 0 -16.68 -961.17 0 0 16.68 44.44 0c123.24,0 167.94,-6.2 170.16,98.4l8.42 392.66c8.29,387.1 -236.68,642.91 -486.08,790.31l-120.71 0z"/>
   <path class="fil0" d="M4255.15 2769.3c-282.94,0 -435.04,130.82 -435.04,376.13 0,251.85 173.37,387.6 495.54,387.6 282.94,0 435.04,-130.83 435.04,-376.16 0,-253.49 -173.37,-387.57 -495.54,-387.57zm524.97 384.31c0,322.18 -197.9,538.05 -495.54,538.05 -296,0 -493.9,-215.87 -493.9,-538.05 0,-325.43 197.9,-541.3 493.9,-541.3 297.64,0 495.54,215.87 495.54,541.3z"/>
   <path class="fil0" d="M5623.27 2446.66c-348.09,0 -533.94,-217.96 -533.94,-621.78 0,-363.33 182.49,-559.34 520.43,-559.34 344.72,0 530.6,218.01 530.6,621.88 0,363.25 -180.82,559.24 -517.09,559.24zm854.43 134.08l0 -15.67 -66.13 0c-92.22,0 -104.42,-6.93 -104.42,-90.47l0 -1153.07c0,-83.57 12.2,-90.48 104.42,-90.48l66.13 0 0 -19.15 -425.6 0 0 15.66 25.02 0c53.62,0 80.36,7.04 80.36,90.5l0 132.18c-120.39,-135.9 -309.11,-215.12 -540.94,-215.12 -414,0 -689.41,248.43 -689.41,620.18 0,373.4 275.41,621.8 689.41,621.8 231.83,0 420.55,-79.21 540.94,-215.35l0 212.85c0,166.74 97.28,106.14 320.22,106.14z"/>
   <path class="fil1" d="M5395.74 2695.04c-274.84,0 -225.11,234.59 -225.11,379.46l0 240.49c0,384.18 -315.63,641.06 -788.25,641.06 -248.59,0 -480.81,-83.39 -564.22,-240.38l13.08 -8.47c81.77,150.45 305.81,225.7 523.33,225.7 405.61,0 675.44,-220.52 675.44,-554.16l0 -332.02c0,-141.83 -7.17,-367.48 336.87,-368.89l477.08 -1.95 0 19.16 -66.12 0c-91.99,0 -104.42,-13.24 -104.42,70.04l0 984.53c0,83.3 12.48,90.52 104.42,90.52l66.12 0 0 25.31 -487.27 0 0 -25.31 66.1 0c91.86,0 100.96,-7.37 100.96,-90.52l0 -906.28c0,-54.33 25.59,-125.48 69.25,-148.29 -78.85,0 -137,0 -197.26,0z"/>
   <path class="fil1" d="M5588.29 1668.8l37.9 0c0,93.81 76.76,170.58 170.6,170.58l0 37.9c-93.84,0 -170.6,76.76 -170.6,170.57l-37.9 0c0,-93.81 -76.77,-170.57 -170.58,-170.57l0 -37.9c93.81,0 170.58,-76.77 170.58,-170.58z"/>
  </g>
  <path class="fil0" d="M713.43 4847.97l237.07 0 0 -7.62 -32.17 0c-44.88,0 -50.8,-3.39 -50.8,-44.03l0 -245.53 109.22 0c3.38,182.88 132.92,303.95 326.81,303.95 194.74,0 325.12,-124.46 325.12,-311.57 0,-186.27 -130.38,-310.73 -325.12,-310.73 -193.89,0 -323.43,121.07 -326.81,303.11l-109.22 0 0 -243c0,-40.64 5.92,-44.02 50.8,-44.02l32.17 0 0 -9.32 -237.07 0 0 7.62 32.18 0c44.87,0 49.95,3.39 49.95,44.03l0 505.46c0,40.64 -5.08,44.03 -49.95,44.03l-32.18 0 0 7.62zm593.52 -8.47c-162.56,0 -248.92,-109.22 -248.92,-311.57 0,-182.04 84.67,-280.25 242.15,-280.25 120.22,0 198.96,60.96 231.14,176.95 11,38.95 16.08,83.83 16.08,134.63 0,182.03 -84.66,280.24 -240.45,280.24zm-6.77 -391.16c0,51.65 42.33,93.14 93.13,93.14 -50.8,0 -93.13,42.33 -93.13,93.13 0,-50.8 -41.49,-93.13 -93.14,-93.13 51.65,0 93.14,-41.49 93.14,-93.14zm514.77 384.39l0 -1.69c11,-10.16 15.24,-23.71 15.24,-43.18l0 -488.53c0,-19.48 -4.24,-33.87 -15.24,-44.03l0 -0.85 75.35 0c93.13,0 154.09,45.72 154.09,114.3 0,66.89 -59.26,114.31 -141.39,114.31l-37.25 0 0 14.39 49.1 0c116,0 198.97,72.81 198.97,174.41 0,96.52 -77.05,160.87 -193.04,160.87l-105.83 0zm-138.86 15.24l261.62 0c143.94,0 256.55,-70.27 256.55,-176.11 0,-86.36 -83.82,-175.26 -204.05,-182.88l0 -3.38c85.51,-11.01 133.77,-70.28 133.77,-118.54 0,-77.05 -88.9,-127.85 -220.98,-127.85l-226.91 0 0 7.62 32.18 0c44.87,0 49.95,4.24 49.95,44.88l0 502.92c0,40.64 -5.08,44.87 -49.95,44.87l-32.18 0 0 8.47zm1176.03 -330.2c16.08,0 28.78,-11.01 28.78,-24.55l0 -4.24c0,-154.09 -136.31,-256.54 -298.03,-256.54 -205.74,0 -343.74,123.61 -343.74,309.04 0,187.96 146.47,313.26 342.05,313.26 132.08,0 236.22,-50.8 293.8,-137.16l-12.7 -9.31c-54.19,82.13 -151.56,131.23 -276.87,131.23 -159.17,0 -261.62,-109.22 -261.62,-311.57l0 -10.16 528.33 0zm-527.48 -15.24c8.47,-165.95 98.21,-254.85 257.39,-254.85 131.23,0 218.44,96.52 218.44,241.3 0,5.08 -2.54,7.62 -6.77,7.62l-469.06 5.93zm592.67 310.73l5.92 -4.24c20.32,26.25 58.42,27.94 75.36,27.94 32.17,-1.69 49.95,-25.4 61.8,-61.8 13.55,-38.1 16.94,-94.83 16.94,-165.95l0 -179.49c0,-69.43 6.77,-189.66 175.26,-190.51l233.68 -0.84 0 9.31 -32.17 0c-44.88,0 -50.8,-6.77 -50.8,33.87l0 513.08c0,41.49 5.92,44.87 50.8,44.87l32.17 0 0 8.47 -238.76 0 0 -8.47 32.17 0c45.72,0 49.95,-3.38 49.95,-44.87l0 -484.3c0,-61.8 -11,-56.72 -62.65,-56.72 -134.62,0 -120.23,118.53 -120.23,189.65l0 134.62c0,93.14 -8.46,163.41 -29.63,210.82 -17.78,38.1 -41.49,60.96 -77.05,66.89 -41.48,7.62 -104.98,-7.62 -122.76,-42.33zm608.75 34.71l144.78 0 265.01 -551.18 0 491.07c0,40.64 -5.08,52.49 -49.11,52.49l-25.4 0 0 7.62 229.45 0 0 -7.62 -33.02 0c-44.87,0 -49.1,-11.85 -49.1,-52.49l0 -488.53c0,-40.64 4.23,-52.5 49.1,-52.5l33.02 0 0 -7.62 -145.62 0 -265.01 551.19 0 -491.07c0,-40.64 5.92,-52.5 50.8,-52.5l23.7 0 0 -7.62 -228.6 0 0 7.62 32.18 0c44.87,0 49.95,11.86 49.95,52.5l0 488.53c0,40.64 -5.08,52.49 -49.95,52.49l-32.18 0 0 7.62zm736.61 -592.67l67.73 0c117.69,0 180.34,59.27 180.34,170.18 0,110.92 -62.65,170.18 -180.34,170.18l-52.49 0 0 -283.63c0,-19.48 -4.24,-38.95 -15.24,-52.5l0 -4.23zm-138.86 592.67l227.76 0 0 -7.62 -22.86 0c-44.88,0 -50.8,-4.23 -50.8,-44.87l0 -184.58 80.43 0c140.55,0 233.68,-74.5 233.68,-185.42 0,-111.76 -93.13,-186.27 -233.68,-186.27l-234.53 0 0 7.62 32.18 0c44.87,0 49.95,4.24 49.95,44.88l0 503.77c0,40.64 -5.08,44.87 -49.95,44.87l-32.18 0 0 7.62zm509.7 0l228.6 0 0 -7.62 -23.7 0c-44.88,0 -50.8,-11.85 -50.8,-52.49l0 -252.31 255.69 0 0 252.31c0,40.64 -5.08,52.49 -49.11,52.49l-25.4 0 0 7.62 229.45 0 0 -7.62 -33.02 0c-44.87,0 -49.1,-11.85 -49.1,-52.49l0 -488.53c0,-40.64 4.23,-52.5 49.1,-52.5l33.02 0 0 -7.62 -229.45 0 0 7.62 23.71 0c44.87,0 50.8,11.86 50.8,52.5l0 220.98 -255.69 0 0 -220.98c0,-40.64 5.92,-52.5 50.8,-52.5l23.7 0 0 -7.62 -228.6 0 0 7.62 32.18 0c44.87,0 49.95,11.86 49.95,52.5l0 488.53c0,40.64 -5.08,52.49 -49.95,52.49l-32.18 0 0 7.62zm1364.84 -7.62l-32.18 0c-36.4,0 -50.8,-3.39 -50.8,-52.49l0 -495.31c0,-40.64 5.93,-44.02 50.8,-44.02l32.18 0 0 -9.32 -206.59 0 0 7.62 11.85 0c26.25,0 38.95,3.39 38.95,44.03l0 64.35c-58.42,-66.04 -149.86,-104.99 -263.32,-104.99 -200.66,0 -335.28,121.07 -335.28,302.26 0,181.19 134.62,302.26 335.28,302.26 113.46,0 204.9,-38.94 263.32,-104.98l0 46.56c4.23,79.59 88.9,59.27 155.79,51.65l0 -7.62zm-415.72 -0.85c-169.33,0 -259.08,-105.83 -259.08,-302.26 0,-176.95 88.05,-271.78 252.31,-271.78 167.64,0 258.23,105.83 258.23,302.26 0,176.96 -88.05,271.78 -251.46,271.78zm-14.39 -412.32c0,60.11 49.1,109.22 108.37,109.22 -59.27,0 -108.37,48.26 -108.37,108.37 0,-60.11 -49.11,-108.37 -109.22,-108.37 60.11,0 109.22,-49.11 109.22,-109.22zm999.91 420.79l0.85 -6.77 -32.17 0c-44.88,0 -49.96,-4.24 -49.96,-44.88l0 -503.77c0,-40.64 5.08,-44.87 49.96,-44.87l32.17 0 0 -7.62 -243 0c-149.01,0 -247.22,75.35 -247.22,187.96 0,103.3 85.51,173.57 197.27,182.88l18.63 0.85 0 5.08c-44.03,4.23 -82.98,28.79 -103.3,58.42l-46.56 66.89c-24.56,34.71 -55.88,87.2 -92.29,87.2 -8.47,0 -17.78,-3.38 -27.09,-10.16l-20.32 -16.08 -5.08 5.92 20.32 16.09c30.48,22.86 55.03,32.17 77.89,32.17 47.41,0 79.59,-44.02 108.37,-85.51l65.2 -91.44c31.32,-43.18 50.8,-65.19 92.28,-65.19l11.01 0 0 -14.4 -42.33 0c-113.46,0 -174.42,-60.96 -174.42,-173.56 0,-112.61 60.96,-172.73 174.42,-172.73l96.52 0 0 0.85c-11.01,10.16 -15.24,24.55 -15.24,44.03l0 496.15c0,40.64 -5.93,44.87 -50.8,44.87l-54.19 0 0 7.62 259.08 0zm283.63 0l144.78 0 265.01 -551.18 0 491.07c0,40.64 -5.08,52.49 -49.11,52.49l-25.4 0 0 7.62 229.45 0 0 -7.62 -33.02 0c-44.87,0 -49.1,-11.85 -49.1,-52.49l0 -488.53c0,-40.64 4.23,-52.5 49.1,-52.5l33.02 0 0 -7.62 -145.62 0 -265.01 551.19 0 -491.07c0,-40.64 5.92,-52.5 50.8,-52.5l23.7 0 0 -7.62 -228.6 0 0 7.62 32.18 0c44.87,0 49.95,11.86 49.95,52.5l0 488.53c0,40.64 -5.08,52.49 -49.95,52.49l-32.18 0 0 7.62zm1437.65 -103.29c166.79,0 278.55,-102.45 278.55,-256.54 0,-153.25 -111.76,-255.7 -278.55,-255.7 -168.49,0 -280.25,102.45 -280.25,255.7 0,154.09 111.76,256.54 280.25,256.54zm2.54 -15.24c-131.23,0 -201.51,-89.75 -201.51,-256.54 0,-146.48 67.74,-225.22 194.74,-225.22 129.54,0 200.66,89.75 200.66,256.54 0,146.48 -67.74,225.22 -193.89,225.22zm-843.28 118.53l237.06 0 0 -7.62 -32.17 0c-44.03,0 -50.8,-5.08 -50.8,-49.11l0 -302.26 11.85 0c67.74,0 117.69,67.74 180.34,147.32 88.06,113.46 199.82,250.62 420.8,250.62 138.01,0 266.7,-65.2 329.35,-115.15l21.17 -16.09 -5.08 -5.92 -20.32 16.08c-29.63,22.86 -148.17,94.83 -291.25,94.83 -217.6,0 -303.96,-143.93 -395.4,-256.54 -49.11,-60.11 -99.06,-111.76 -172.72,-127l-0.85 -3.39 148.17 -170.18c38.95,-44.87 95.68,-58.42 136.32,-58.42l16.08 0 0 -7.62 -210.82 0 0 7.62 8.47 0c28.78,0 48.26,6.77 48.26,22.86 0,8.47 -4.24,18.63 -15.24,32.17l-147.32 168.49c-8.47,10.16 -27.1,11.86 -60.96,11.86l0 -192.2c0,-39.79 5.92,-43.18 50.8,-43.18l8.46 0 0 -7.62 -213.36 0 0 7.62 32.18 0c44.87,0 49.95,4.23 49.95,44.87l0 496.15c0,47.42 -5.08,52.5 -49.95,52.5l-32.18 0 -0.84 9.31zm1165.01 0l228.6 0 0 -7.62 -23.7 0c-44.88,0 -50.8,-11.85 -50.8,-52.49l0 -252.31 255.69 0 0 252.31c0,40.64 -5.08,52.49 -49.11,52.49l-25.4 0 0 7.62 229.45 0 0 -7.62 -33.02 0c-44.87,0 -49.1,-11.85 -49.1,-52.49l0 -488.53c0,-40.64 4.23,-52.5 49.1,-52.5l33.02 0 0 -7.62 -229.45 0 0 7.62 23.71 0c44.87,0 50.8,11.86 50.8,52.5l0 220.98 -255.69 0 0 -220.98c0,-40.64 5.92,-52.5 50.8,-52.5l23.7 0 0 -7.62 -228.6 0 0 7.62 32.18 0c44.87,0 49.95,11.86 49.95,52.5l0 488.53c0,40.64 -5.08,52.49 -49.95,52.49l-32.18 0 0 7.62zm955.05 6.77c205.74,0 343.75,-124.46 343.75,-311.57 0,-186.27 -138.01,-310.73 -343.75,-310.73 -207.44,0 -345.44,124.46 -345.44,310.73 0,187.11 138,311.57 345.44,311.57zm3.38 -15.24c-174.41,0 -267.54,-109.22 -267.54,-311.57 0,-182.04 91.44,-280.25 260.77,-280.25 172.72,0 265.86,109.22 265.86,311.58 0,182.03 -90.6,280.24 -259.09,280.24zm-3.38 -407.24c0,54.18 44.02,98.21 97.37,98.21 -53.35,0 -97.37,44.03 -97.37,97.37 0,-53.34 -44.03,-97.37 -98.22,-97.37 54.19,0 98.22,-44.03 98.22,-98.21zm467.36 415.71l311.57 0 0 -7.62 -69.43 0c-44.87,0 -49.1,-4.23 -49.1,-44.87l0 -541.03 54.18 0c88.91,0 118.54,16.09 125.31,97.37l2.54 34.71 16.94 -0.84 -11.01 -146.48 -450.43 0 -11.85 146.48 16.93 0.84 3.39 -34.71c4.23,-81.28 35.56,-97.37 125.3,-97.37l55.88 0 0 541.03c0,40.64 -4.23,44.87 -49.1,44.87l-71.12 0 0 7.62zm723.9 -174.41l0 -271.79 -8.47 0 0 29.64c0,81.28 -48.26,89.75 -100.75,89.75l-37.25 0 0 -221.83c0,-18.63 -9.32,-33.87 -20.32,-44.03l0 -0.85 131.23 0c89.75,0 138.01,31.33 143.94,122.77l3.38 59.27 16.94 0 -16.94 -197.28 -412.33 0 0 7.62 32.18 0c44.87,0 49.95,4.24 49.95,44.88l0 503.77c0,40.64 -5.08,44.87 -49.95,44.87l-32.18 0 0 7.62 470.75 0 7.62 -197.27 -14.39 0 -5.93 67.73c-6.77,81.28 -49.1,114.3 -138.85,114.3l-185.42 0 0 -0.85c11,-10.16 20.32,-25.4 20.32,-44.02l0 -251.46 37.25 0c52.49,0 100.75,9.31 100.75,90.59l0 46.57 8.47 0zm213.36 174.41l237.07 0 0 -7.62 -32.17 0c-44.88,0 -50.8,-5.08 -50.8,-52.49l0 -298.03 11.85 0c116.84,0 144.78,85.51 163.41,173.57 19.47,94.82 28.78,193.88 128.69,193.88 24.56,0 49.96,-10.16 76.2,-31.32l11.86 -8.47 -5.08 -5.93 -11.86 8.47c-16.93,11.85 -32.17,16.93 -44.02,16.93 -71.97,0 -62.66,-90.59 -81.29,-182.03 -15.24,-75.35 -51.64,-151.55 -169.33,-176.11l-0.85 -3.38 148.17 -170.19c38.95,-44.87 95.68,-58.42 136.32,-58.42l11.85 0 0 -7.62 -205.74 0 0 7.62 8.46 0c28.79,0 48.26,6.78 48.26,22.86 0,8.47 -5.08,18.63 -16.08,32.18l-147.32 168.49c-8.47,10.16 -27.1,11.85 -60.12,11.85l0 -190.5c0,-40.64 5.08,-44.88 49.96,-44.88l8.46 0 0 -7.62 -213.36 0 0 7.62 33.02 0c44.03,0 49.11,4.24 49.11,44.88l0 496.15c0,47.41 -5.08,52.49 -49.11,52.49l-33.02 0 -2.54 7.62zm1313.19 -7.62l-32.18 0c-36.4,0 -50.8,-3.39 -50.8,-52.49l0 -495.31c0,-40.64 5.93,-44.02 50.8,-44.02l32.18 0 0 -9.32 -206.59 0 0 7.62 11.85 0c26.25,0 38.95,3.39 38.95,44.03l0 64.35c-58.42,-66.04 -149.86,-104.99 -263.32,-104.99 -200.66,0 -335.28,121.07 -335.28,302.26 0,181.19 134.62,302.26 335.28,302.26 113.46,0 204.9,-38.94 263.32,-104.98l0 46.56c4.23,79.59 88.9,59.27 155.79,51.65l0 -7.62zm-415.72 -0.85c-169.33,0 -259.08,-105.83 -259.08,-302.26 0,-176.95 88.05,-271.78 252.31,-271.78 167.64,0 258.23,105.83 258.23,302.26 0,176.96 -88.05,271.78 -251.46,271.78zm-14.39 -412.32c0,60.11 49.1,109.22 108.37,109.22 -59.27,0 -108.37,48.26 -108.37,108.37 0,-60.11 -49.11,-108.37 -109.22,-108.37 60.11,0 109.22,-49.11 109.22,-109.22z"/>
 </g>
</svg>
